<?xml version="1.0" encoding="UTF-8"?>
<svg width="1024" height="1024" viewBox="0 0 1024 1024" fill="none" xmlns="http://www.w3.org/2000/svg">
  <defs>
    <radialGradient id="bg" cx="0" cy="0" r="1" gradientUnits="userSpaceOnUse"
      gradientTransform="translate(512 420) rotate(90) scale(700)">
      <stop stop-color="#0B1020"/>
      <stop offset="1" stop-color="#05060A"/>
    </radialGradient>
    <linearGradient id="glassSheen" x1="180" y1="180" x2="840" y2="840" gradientUnits="userSpaceOnUse">
      <stop stop-color="rgba(255,255,255,0.18)"/>
      <stop offset="1" stop-color="rgba(255,255,255,0.04)"/>
    </linearGradient>
    <filter id="softShadow" x="-20%" y="-20%" width="140%" height="140%">
      <feDropShadow dx="0" dy="18" stdDeviation="24" flood-color="rgba(0,0,0,0.55)"/>
    </filter>
    <clipPath id="round">
      <rect x="120" y="120" width="784" height="784" rx="180"/>
    </clipPath>
  </defs>

  <rect width="1024" height="1024" fill="url(#bg)"/>

  <g filter="url(#softShadow)">
    <g clip-path="url(#round)">
      <rect x="120" y="120" width="784" height="784" rx="180" fill="rgba(255,255,255,0.08)"/>
      <rect x="120" y="120" width="784" height="784" rx="180" fill="url(#glassSheen)"/>
      <rect x="120" y="120" width="784" height="784" rx="180" stroke="rgba(255,255,255,0.16)" stroke-width="2"/>

      <!-- centered logo mark -->
      <g transform="translate(0,0)">
        <g transform="translate(0,0)">
          <g transform="translate(0,0)">
            <g transform="translate(0,0)">
              <g transform="translate(0,0)">
                <!-- embed mark via paths (mirrors logo-mark.svg) -->
                <defs>
                  <linearGradient id="neonStroke" x1="224" y1="224" x2="800" y2="800" gradientUnits="userSpaceOnUse">
                    <stop stop-color="#20F2FF"/>
                    <stop offset="1" stop-color="#B35CFF"/>
                  </linearGradient>
                  <filter id="glow" x="-30%" y="-30%" width="160%" height="160%">
                    <feGaussianBlur stdDeviation="10" result="blur"/>
                    <feColorMatrix in="blur" type="matrix"
                      values="1 0 0 0 0
                              0 1 0 0 0
                              0 0 1 0 0
                              0 0 0 0.65 0" result="glowOut"/>
                    <feMerge>
                      <feMergeNode in="glowOut"/>
                      <feMergeNode in="SourceGraphic"/>
                    </feMerge>
                  </filter>
                  <mask id="waveCut">
                    <rect width="1024" height="1024" fill="white"/>
                    <path d="M310 520c42-66 78-66 120 0s78 66 120 0 78-66 120 0 78 66 120 0"
                          stroke="black" stroke-width="54" stroke-linecap="round" stroke-linejoin="round"/>
                  </mask>
                </defs>

                <g filter="url(#glow)" mask="url(#waveCut)">
                  <path d="M270 512c0-150 122-272 272-272 116 0 218 74 258 178"
                        stroke="url(#neonStroke)" stroke-width="64" stroke-linecap="round"/>
                  <path d="M754 512c0 150-122 272-272 272-116 0-218-74-258-178"
                        stroke="url(#neonStroke)" stroke-width="64" stroke-linecap="round"/>
                  <circle cx="512" cy="512" r="70" stroke="url(#neonStroke)" stroke-width="44"/>
                </g>
              </g>
            </g>
          </g>
        </g>
      </g>
    </g>
  </g>
</svg>

